<svg xmlns="http://www.w3.org/2000/svg" viewBox="9.999999999999996 15.395199999999983 95 89.23979999999999">
  <path d="m 56.915 15.3952 c -1.87 -0.77 -4.02 -0.345 -5.45 1.085 l -21.465 23.53 h -15 c -2.75 0 -5 2.255 -5 5 v 29.9998 c 0 2.75 2.25 5 5 5 h 15 l 21.465 23.54 c 1.43 1.43 3.58 1.86 5.45 1.085 c 1.87 -0.775 3.085 -2.6 3.085 -4.625 v -79.9998 c 0 -2.015 -1.215 -3.85 -3.085 -4.615 z m 13.085 9.6145 v 10 c 13.785 0 25 11.22 25 25.0003 c 0 13.785 -11.215 25 -25 25 v 10 c 19.3 0 35 -15.695 35 -35 c 0 -19.2952 -15.7 -35.0003 -35 -35.0003 z m 0 20 c 8.27 0 15 6.7352 15 15.0002 c 0 8.275 -6.73 15 -15 15 v -10 c 2.755 0 5 -2.245 5 -5 c 0 -2.755 -2.245 -5 -5 -5 v -10.0002 z" fill="#000000"/>
</svg>